<svg width="446" height="386" viewBox="0 0 446 386" fill="none" xmlns="http://www.w3.org/2000/svg">
<path fill-rule="evenodd" clip-rule="evenodd" d="M81 93C63.3269 93 49 107.327 49 125C49 142.673 63.3269 157 81 157H110.712C114.332 157 117 160.38 117 164V164V164C117 168.221 114.053 172.267 110.041 173.58C97.244 177.767 88 189.804 88 204C88 221.673 102.327 236 120 236H366C383.673 236 398 221.673 398 204C398 186.327 383.673 172 366 172H358.076C353.981 172 351 168.095 351 164V164V164C351 160.073 353.595 156.342 357.27 154.959C369.382 150.4 378 138.707 378 125C378 107.327 363.673 93 346 93H81ZM226 263C215.507 263 207 271.507 207 282C207 292.493 215.507 301 226 301H349C359.493 301 368 292.493 368 282C368 271.507 359.493 263 349 263H226Z" fill="#D9DCE9"/>
<path fill-rule="evenodd" clip-rule="evenodd" d="M352.103 82.1843C344.897 81.272 338.189 86.0231 336.659 93.1242L334.24 104.352L131.994 91.7408C123.378 91.2036 116.333 98.5166 117.192 107.107L129.187 227.056C129.863 233.812 135.289 239.11 142.059 239.623L302.469 251.782L295.925 282.15C295.294 285.077 292.603 287.091 289.617 286.87L156.296 277.012C154.093 276.849 152.175 278.503 152.012 280.706C151.85 282.909 153.503 284.827 155.707 284.99L289.027 294.848C295.993 295.363 302.274 290.664 303.745 283.835L344.48 94.8095C345.135 91.7662 348.01 89.73 351.098 90.1209L381.499 93.9691C383.691 94.2466 385.692 92.6948 385.97 90.5031C386.247 88.3115 384.695 86.3099 382.504 86.0325L352.103 82.1843ZM304.17 243.888L317.527 181.907L279.422 179.229L268.304 241.17L304.17 243.888ZM260.286 240.562L271.395 178.665L232.238 175.914L228.165 238.127L260.286 240.562ZM220.188 237.522L186.735 234.987L181.762 172.367L224.257 175.353L220.188 237.522ZM232.76 167.931L272.817 170.746L283.859 109.226L236.795 106.291L232.76 167.931ZM228.81 105.793L224.78 167.37L181.121 164.302L176.214 102.514L228.81 105.793ZM319.229 174.007L280.843 171.31L291.897 109.727L332.535 112.261L319.229 174.007ZM178.661 234.375L142.664 231.646C139.762 231.426 137.437 229.156 137.147 226.26L131.318 167.967C131.959 168.548 132.792 168.926 133.721 168.991L173.691 171.8L178.661 234.375ZM168.149 102.011L173.051 163.735L134.282 161.011C132.866 160.911 131.57 161.561 130.784 162.624L125.152 106.311C124.784 102.629 127.803 99.4951 131.496 99.7253L168.149 102.011Z" fill="url(#paint0_linear_2976_3708)"/>
<circle cx="156.5" cy="281" r="22" fill="url(#paint1_radial_2976_3708)"/>
<circle cx="294.5" cy="292" r="22" fill="url(#paint2_radial_2976_3708)"/>
<rect x="83" y="72" width="100" height="100" rx="50" fill="#D268CB"/>
<g filter="url(#filter0_d_2976_3708)">
<path d="M132.999 96.6035C136.313 96.6035 139.208 97.3586 141.682 98.8686C144.203 100.379 146.164 102.552 147.565 105.389C148.965 108.181 149.665 111.544 149.665 115.48V128.521C149.665 132.457 148.942 135.843 147.494 138.68C146.094 141.517 144.133 143.691 141.612 145.201C139.138 146.665 136.267 147.397 132.999 147.397C130.571 147.397 128.33 146.962 126.276 146.093C124.222 145.269 122.448 144.034 120.954 142.386C119.46 140.739 118.316 138.749 117.523 136.415C116.729 134.081 116.332 131.45 116.332 128.521V115.48C116.332 111.498 117.032 108.112 118.433 105.321C119.88 102.484 121.841 100.333 124.315 98.8686C126.836 97.3586 129.731 96.6035 132.999 96.6035ZM132.999 105.252C131.458 105.252 130.151 105.595 129.077 106.282C128.003 106.922 127.186 107.998 126.626 109.508C126.113 110.972 125.856 112.963 125.856 115.48V128.521C125.856 129.711 125.903 130.832 125.996 131.885C126.136 132.891 126.323 133.784 126.556 134.561C126.79 135.294 127.07 135.889 127.396 136.346C128.003 137.078 128.727 137.673 129.567 138.131C130.408 138.543 131.435 138.749 132.649 138.749C134.236 138.749 135.59 138.405 136.71 137.719C137.831 136.987 138.671 135.889 139.231 134.424C139.838 132.914 140.142 130.946 140.142 128.521V115.274C140.142 113.855 140.048 112.642 139.861 111.636C139.721 110.583 139.488 109.691 139.161 108.959C138.881 108.227 138.508 107.609 138.041 107.105C137.527 106.511 136.827 106.053 135.94 105.733C135.053 105.412 134.072 105.252 132.999 105.252Z" fill="white"/>
</g>
<defs>
<filter id="filter0_d_2976_3708" x="113.332" y="96.6035" width="41.332" height="58.793" filterUnits="userSpaceOnUse" color-interpolation-filters="sRGB">
<feFlood flood-opacity="0" result="BackgroundImageFix"/>
<feColorMatrix in="SourceAlpha" type="matrix" values="0 0 0 0 0 0 0 0 0 0 0 0 0 0 0 0 0 0 127 0" result="hardAlpha"/>
<feOffset dx="1" dy="4"/>
<feGaussianBlur stdDeviation="2"/>
<feComposite in2="hardAlpha" operator="out"/>
<feColorMatrix type="matrix" values="0 0 0 0 0 0 0 0 0 0 0 0 0 0 0 0 0 0 0.15 0"/>
<feBlend mode="normal" in2="BackgroundImageFix" result="effect1_dropShadow_2976_3708"/>
<feBlend mode="normal" in="SourceGraphic" in2="effect1_dropShadow_2976_3708" result="shape"/>
</filter>
<linearGradient id="paint0_linear_2976_3708" x1="251.562" y1="82.0723" x2="251.562" y2="294.887" gradientUnits="userSpaceOnUse">
<stop stop-color="#EDAAE4"/>
<stop offset="0.41" stop-color="#D18ACE"/>
</linearGradient>
<radialGradient id="paint1_radial_2976_3708" cx="0" cy="0" r="1" gradientUnits="userSpaceOnUse" gradientTransform="translate(156.5 281) rotate(90) scale(22)">
<stop stop-color="#385A64"/>
<stop offset="1" stop-color="#294853"/>
</radialGradient>
<radialGradient id="paint2_radial_2976_3708" cx="0" cy="0" r="1" gradientUnits="userSpaceOnUse" gradientTransform="translate(294.5 292) rotate(90) scale(22)">
<stop stop-color="#385A64"/>
<stop offset="1" stop-color="#294853"/>
</radialGradient>
</defs>
</svg>
