<svg width="229" height="146" viewBox="0 0 229 146" fill="none" xmlns="http://www.w3.org/2000/svg">
<path d="M0.769017 72.3182L13.6773 77.6596C14.0379 77.8088 14.0962 78.2951 13.7812 78.5253L2.20819 86.9825C1.89545 87.211 1.45282 87.0125 1.41551 86.6269L0.0801659 72.8284C0.0438318 72.4529 0.42047 72.174 0.769017 72.3182Z" fill="#0F1949"/>
<path d="M147.392 59.119C147.679 58.3419 148.541 57.9446 149.318 58.2316C150.096 58.5185 150.493 59.3812 150.206 60.1583L147.392 59.119ZM97.2587 95.8425L97.2587 97.3425L97.2587 97.3425L97.2587 95.8425ZM70.9857 76.3578L69.5435 76.7699L70.9857 76.3578ZM97.6358 78.6206L99.129 78.7633L99.1196 78.8616L99.0974 78.9578L97.6358 78.6206ZM148.565 64.1402C148.221 64.894 147.331 65.2263 146.578 64.8825C145.824 64.5388 145.491 63.6491 145.835 62.8953L148.565 64.1402ZM141.912 70.0599C142.362 69.3642 143.29 69.1649 143.986 69.6147C144.682 70.0644 144.881 70.993 144.431 71.6887L141.912 70.0599ZM139.239 78.5557C138.692 79.1778 137.744 79.2385 137.122 78.6914C136.5 78.1443 136.44 77.1965 136.987 76.5744L139.239 78.5557ZM131.151 82.2764C131.786 81.7445 132.732 81.8282 133.264 82.4633C133.796 83.0984 133.712 84.0445 133.077 84.5764L131.151 82.2764ZM126.053 89.5779C125.342 90.0036 124.421 89.7725 123.995 89.0618C123.57 88.3511 123.801 87.4299 124.511 87.0043L126.053 89.5779ZM117.211 90.6165C117.981 90.3099 118.853 90.6851 119.16 91.4547C119.466 92.2243 119.091 93.0967 118.322 93.4034L117.211 90.6165ZM110.084 95.9483C109.276 96.1298 108.474 95.6217 108.292 94.8134C108.111 94.0052 108.619 93.2027 109.427 93.0212L110.084 95.9483ZM101.351 94.1992C102.178 94.1407 102.895 94.7632 102.954 95.5896C103.012 96.4159 102.389 97.1332 101.563 97.1917L101.351 94.1992ZM92.6519 97.0328C91.8312 96.9199 91.2575 96.163 91.3704 95.3423C91.4833 94.5216 92.2402 93.9479 93.0609 94.0608L92.6519 97.0328ZM85.0963 91.6733C85.8402 92.038 86.1475 92.9366 85.7828 93.6804C85.4181 94.4243 84.5195 94.7316 83.7757 94.367L85.0963 91.6733ZM76.2676 88.8552C75.6979 88.2538 75.7236 87.3044 76.325 86.7347C76.9265 86.165 77.8759 86.1907 78.4456 86.7921L76.2676 88.8552ZM73.8628 79.8887C74.2027 80.6442 73.8658 81.5322 73.1104 81.8721C72.3549 82.212 71.4669 81.8751 71.127 81.1197L73.8628 79.8887ZM68.7218 72.0287C68.6782 71.2014 69.3135 70.4954 70.1408 70.4519C70.9681 70.4083 71.6741 71.0436 71.7176 71.8709L68.7218 72.0287ZM73.7669 64.406C73.2723 65.0706 72.3326 65.2082 71.668 64.7136C71.0035 64.2189 70.8658 63.2792 71.3605 62.6146L73.7669 64.406ZM79.6753 57.4123C80.4853 57.2383 81.2829 57.7539 81.4569 58.5638C81.6309 59.3738 81.1154 60.1714 80.3054 60.3454L79.6753 57.4123ZM88.1494 61.1337C87.3901 60.8023 87.0432 59.9182 87.3746 59.1589C87.706 58.3996 88.5901 58.0528 89.3494 58.3841L88.1494 61.1337ZM96.5951 64.8595C97.0148 65.5737 96.776 66.493 96.0617 66.9126C95.3475 67.3323 94.4282 67.0935 94.0085 66.3793L96.5951 64.8595ZM96.2307 74.2342C96.1799 73.4074 96.8089 72.6958 97.6358 72.6449C98.4626 72.594 99.1742 73.2231 99.2251 74.0499L96.2307 74.2342ZM97.9056 82.856C97.6077 83.629 96.7395 84.0142 95.9665 83.7163C95.1935 83.4183 94.8084 82.5502 95.1063 81.7772L97.9056 82.856ZM91.5446 88.1041C92.0498 87.4475 92.9916 87.3248 93.6482 87.83C94.3047 88.3352 94.4274 89.277 93.9222 89.9336L91.5446 88.1041ZM88.1947 95.6326C87.5394 96.1395 86.5973 96.0193 86.0904 95.364C85.5835 94.7088 85.7037 93.7667 86.359 93.2598L88.1947 95.6326ZM80.0563 97.134C80.8014 96.7718 81.699 97.0822 82.0611 97.8273C82.4232 98.5724 82.1128 99.47 81.3677 99.8321L80.0563 97.134ZM73.9388 102.696C73.1448 102.933 72.3096 102.48 72.0732 101.686C71.8368 100.892 72.2889 100.057 73.0829 99.8209L73.9388 102.696ZM65.7536 101.465C66.572 101.336 67.3397 101.895 67.4682 102.714C67.5968 103.532 67.0376 104.3 66.2192 104.428L65.7536 101.465ZM58.3656 105.192C57.5378 105.225 56.8398 104.581 56.8066 103.753C56.7734 102.925 57.4175 102.227 58.2453 102.194L58.3656 105.192ZM50.6864 102.091C51.513 102.146 52.1386 102.861 52.0837 103.687C52.0288 104.514 51.3142 105.14 50.4875 105.085L50.6864 102.091ZM42.6674 104.155C41.851 104.015 41.303 103.239 41.4435 102.422C41.5839 101.606 42.3597 101.058 43.1761 101.199L42.6674 104.155ZM35.8082 99.522C36.6048 99.7496 37.066 100.58 36.8384 101.376C36.6109 102.173 35.7807 102.634 34.9841 102.407L35.8082 99.522ZM27.5338 99.8019C26.7697 99.4819 26.4097 98.603 26.7298 97.8389C27.0499 97.0748 27.9287 96.7148 28.6928 97.0349L27.5338 99.8019ZM21.9727 93.6789C22.6859 94.1002 22.9226 95.02 22.5012 95.7333C22.0798 96.4465 21.16 96.6832 20.4468 96.2618L21.9727 93.6789ZM13.936 91.6782C13.3016 91.1455 13.2192 90.1993 13.752 89.5649C14.2848 88.9305 15.2309 88.8481 15.8653 89.3809L13.936 91.6782ZM10.6856 84.0913C11.2005 84.7403 11.0918 85.6838 10.4429 86.1987C9.79388 86.7136 8.85037 86.6049 8.33547 85.956L10.6856 84.0913ZM150.206 60.1583C149.712 61.4962 149.165 62.8252 148.565 64.1402L145.835 62.8953C146.404 61.6475 146.923 60.3871 147.392 59.119L150.206 60.1583ZM144.431 71.6887C142.887 74.077 141.155 76.3782 139.239 78.5557L136.987 76.5744C138.802 74.51 140.446 72.327 141.912 70.0599L144.431 71.6887ZM133.077 84.5764C130.897 86.4018 128.554 88.0799 126.053 89.5779L124.511 87.0043C126.874 85.5894 129.088 84.0034 131.151 82.2764L133.077 84.5764ZM118.322 93.4034C115.706 94.4459 112.958 95.3029 110.084 95.9483L109.427 93.0212C112.145 92.4108 114.741 91.6008 117.211 90.6165L118.322 93.4034ZM101.563 97.1917C100.153 97.2914 98.7177 97.3425 97.2587 97.3425L97.2587 94.3425C98.6477 94.3425 100.012 94.2939 101.351 94.1992L101.563 97.1917ZM97.2587 97.3425C95.6865 97.3425 94.1485 97.2387 92.6519 97.0328L93.0609 94.0608C94.4173 94.2475 95.8186 94.3425 97.2587 94.3425L97.2587 97.3425ZM83.7757 94.367C80.9605 92.9867 78.4316 91.1397 76.2676 88.8552L78.4456 86.7921C80.3594 88.8126 82.5966 90.4477 85.0963 91.6733L83.7757 94.367ZM71.127 81.1197C70.5088 79.7458 69.9792 78.2948 69.5435 76.7699L72.428 75.9457C72.8253 77.3363 73.3059 78.6511 73.8628 79.8887L71.127 81.1197ZM69.5435 76.7699C69.0681 75.1062 68.8005 73.5239 68.7218 72.0287L71.7176 71.8709C71.7834 73.1204 72.0089 74.479 72.428 75.9457L69.5435 76.7699ZM71.3605 62.6146C73.4118 59.8591 76.4224 58.1111 79.6753 57.4123L80.3054 60.3454C77.6746 60.9106 75.3327 62.3027 73.7669 64.406L71.3605 62.6146ZM89.3494 58.3841C92.2104 59.6328 94.7845 61.778 96.5951 64.8595L94.0085 66.3793C92.5294 63.862 90.4497 62.1376 88.1494 61.1337L89.3494 58.3841ZM99.2251 74.0499C99.316 75.5274 99.2882 77.0982 99.129 78.7633L96.1426 78.4778C96.2879 76.9575 96.3114 75.5441 96.2307 74.2342L99.2251 74.0499ZM99.0974 78.9578C98.7856 80.3088 98.3865 81.6083 97.9056 82.856L95.1063 81.7772C95.536 80.6622 95.8939 79.4979 96.1742 78.2833L99.0974 78.9578ZM93.9222 89.9336C92.2816 92.0657 90.3524 93.9633 88.1947 95.6326L86.359 93.2598C88.3306 91.7344 90.0733 90.0162 91.5446 88.1041L93.9222 89.9336ZM81.3677 99.8321C79.0262 100.97 76.5356 101.923 73.9388 102.696L73.0829 99.8209C75.5373 99.0902 77.8741 98.1946 80.0563 97.134L81.3677 99.8321ZM66.2192 104.428C63.652 104.832 61.0233 105.085 58.3656 105.192L58.2453 102.194C60.7925 102.092 63.3057 101.849 65.7536 101.465L66.2192 104.428ZM50.4875 105.085C47.8712 104.911 45.2546 104.6 42.6674 104.155L43.1761 101.199C45.6603 101.626 48.1735 101.924 50.6864 102.091L50.4875 105.085ZM34.9841 102.407C32.4306 101.677 29.9365 100.808 27.5338 99.8019L28.6928 97.0349C30.981 97.9933 33.3629 98.8234 35.8082 99.522L34.9841 102.407ZM20.4468 96.2618C18.1248 94.8901 15.9409 93.3619 13.936 91.6782L15.8653 89.3809C17.7336 90.9499 19.7809 92.384 21.9727 93.6789L20.4468 96.2618ZM8.33547 85.956C7.4983 84.9008 6.72258 83.8028 6.0146 82.6621L8.56352 81.08C9.20859 82.1193 9.91752 83.1233 10.6856 84.0913L8.33547 85.956Z" fill="#0F1949"/>
<path d="M120.648 48.063C120.522 48.091 120.41 48.112 120.312 48.126C120.214 48.14 120.116 48.154 120.018 48.168C119.92 48.182 119.808 48.189 119.682 48.189C119.248 48.189 118.912 48.119 118.674 47.979C118.436 47.825 118.268 47.622 118.17 47.37C118.086 47.104 118.044 46.81 118.044 46.488C118.044 45.83 118.044 45.172 118.044 44.514C118.044 43.856 118.044 43.198 118.044 42.54H120.396C120.396 42.904 120.396 43.268 120.396 43.632C120.396 43.982 120.396 44.339 120.396 44.703C120.396 45.067 120.396 45.424 120.396 45.774C120.396 46.194 120.41 46.593 120.438 46.971C120.48 47.349 120.55 47.713 120.648 48.063ZM113.466 33.237C113.62 33.195 113.781 33.167 113.949 33.153C114.131 33.125 114.306 33.111 114.474 33.111C114.838 33.111 115.125 33.153 115.335 33.237C115.545 33.307 115.706 33.454 115.818 33.678C115.93 33.888 116.007 34.189 116.049 34.581C116.161 35.295 116.308 35.974 116.49 36.618C116.672 37.262 116.896 37.878 117.162 38.466C117.428 39.054 117.743 39.642 118.107 40.23C118.485 40.804 118.926 41.399 119.43 42.015L118.527 41.553H119.892L118.947 42.015C119.507 41.343 119.99 40.685 120.396 40.041C120.816 39.397 121.173 38.732 121.467 38.046C121.761 37.36 121.999 36.632 122.181 35.862C122.377 35.078 122.531 34.203 122.643 33.237C122.797 33.195 122.958 33.167 123.126 33.153C123.308 33.125 123.49 33.111 123.672 33.111C124.092 33.111 124.407 33.216 124.617 33.426C124.841 33.622 124.939 33.881 124.911 34.203C124.813 35.015 124.659 35.799 124.449 36.555C124.239 37.311 123.973 38.025 123.651 38.697C123.343 39.369 122.993 40.006 122.601 40.608C122.223 41.21 121.81 41.77 121.362 42.288C120.928 42.792 120.48 43.247 120.018 43.653C119.724 43.653 119.472 43.653 119.262 43.653C119.052 43.639 118.863 43.611 118.695 43.569C118.541 43.527 118.394 43.471 118.254 43.401C118.128 43.317 117.995 43.205 117.855 43.065C117.421 42.645 117.008 42.197 116.616 41.721C116.238 41.231 115.881 40.706 115.545 40.146C115.223 39.572 114.929 38.942 114.663 38.256C114.411 37.57 114.18 36.814 113.97 35.988C113.774 35.148 113.606 34.231 113.466 33.237ZM130.819 36.555C131.505 36.555 132.149 36.695 132.751 36.975C133.367 37.241 133.906 37.647 134.368 38.193C134.83 38.725 135.194 39.376 135.46 40.146C135.726 40.916 135.859 41.812 135.859 42.834V43.065C135.859 44.115 135.642 45.032 135.208 45.816C134.788 46.586 134.193 47.181 133.423 47.601C132.653 48.021 131.75 48.231 130.714 48.231C130 48.231 129.335 48.126 128.719 47.916C128.117 47.692 127.585 47.37 127.123 46.95C126.675 46.516 126.325 45.977 126.073 45.333C125.821 44.675 125.695 43.919 125.695 43.065V42.834C125.695 41.56 125.912 40.454 126.346 39.516C126.794 38.578 127.403 37.85 128.173 37.332C128.943 36.814 129.825 36.555 130.819 36.555ZM131.071 38.676C130.357 38.676 129.762 38.851 129.286 39.201C128.81 39.537 128.453 40.027 128.215 40.671C127.977 41.315 127.858 42.085 127.858 42.981V43.107C127.858 43.639 127.921 44.15 128.047 44.64C128.173 45.13 128.397 45.564 128.719 45.942C128.999 46.012 129.265 46.061 129.517 46.089C129.783 46.117 130.084 46.131 130.42 46.131C131.176 46.131 131.792 46.012 132.268 45.774C132.744 45.522 133.101 45.158 133.339 44.682C133.577 44.192 133.696 43.611 133.696 42.939V42.792C133.696 41.952 133.605 41.203 133.423 40.545C133.241 39.873 132.947 39.306 132.541 38.844C132.345 38.774 132.128 38.732 131.89 38.718C131.652 38.69 131.379 38.676 131.071 38.676ZM139.231 36.681C139.651 36.681 140.008 36.758 140.302 36.912C140.596 37.066 140.82 37.346 140.974 37.752C141.128 38.158 141.205 38.732 141.205 39.474C141.205 39.922 141.191 40.349 141.163 40.755C141.149 41.161 141.121 41.574 141.079 41.994C141.037 42.414 140.988 42.848 140.932 43.296C140.876 43.744 140.799 44.234 140.701 44.766C140.841 45.102 141.002 45.361 141.184 45.543C141.38 45.711 141.611 45.795 141.877 45.795C142.269 45.795 142.654 45.683 143.032 45.459C143.41 45.221 143.774 44.871 144.124 44.409C144.488 43.933 144.817 43.331 145.111 42.603C145.419 41.875 145.685 41.007 145.909 39.999V44.43H145.594C145.286 45.158 144.901 45.809 144.439 46.383C143.977 46.943 143.473 47.391 142.927 47.727C142.381 48.049 141.807 48.21 141.205 48.21C140.855 48.21 140.533 48.119 140.239 47.937C139.945 47.755 139.686 47.51 139.462 47.202C139.252 46.88 139.084 46.523 138.958 46.131C138.832 45.739 138.769 45.347 138.769 44.955C138.769 44.367 138.769 43.786 138.769 43.212C138.769 42.638 138.769 42.064 138.769 41.49C138.769 40.916 138.769 40.349 138.769 39.789C138.769 39.187 138.741 38.669 138.685 38.235C138.643 37.801 138.552 37.311 138.412 36.765C138.552 36.737 138.685 36.716 138.811 36.702C138.937 36.688 139.077 36.681 139.231 36.681ZM146.35 36.702C146.728 36.702 147.029 36.765 147.253 36.891C147.491 37.003 147.659 37.171 147.757 37.395C147.869 37.605 147.925 37.871 147.925 38.193C147.925 39.117 147.925 40.02 147.925 40.902C147.925 41.784 147.925 42.652 147.925 43.506C147.925 44.346 147.925 45.186 147.925 46.026C147.925 46.306 147.932 46.565 147.946 46.803C147.974 47.027 148.009 47.237 148.051 47.433C148.107 47.629 148.177 47.818 148.261 48C148.191 48.014 148.114 48.028 148.03 48.042C147.96 48.056 147.883 48.063 147.799 48.063C147.729 48.077 147.659 48.084 147.589 48.084C147.239 48.084 146.917 48 146.623 47.832C146.343 47.664 146.119 47.384 145.951 46.992C145.797 46.586 145.72 46.033 145.72 45.333C145.72 44.353 145.72 43.38 145.72 42.414C145.72 41.434 145.72 40.468 145.72 39.516C145.72 38.564 145.72 37.647 145.72 36.765C145.804 36.737 145.874 36.723 145.93 36.723C146 36.723 146.063 36.723 146.119 36.723C146.189 36.709 146.266 36.702 146.35 36.702ZM153.482 40.398H153.755C153.993 39.558 154.273 38.844 154.595 38.256C154.917 37.668 155.281 37.22 155.687 36.912C156.107 36.59 156.555 36.429 157.031 36.429C157.269 36.429 157.472 36.45 157.64 36.492C157.822 36.534 157.962 36.611 158.06 36.723C158.186 36.849 158.277 37.024 158.333 37.248C158.403 37.458 158.438 37.759 158.438 38.151C158.438 38.263 158.431 38.375 158.417 38.487C158.417 38.585 158.41 38.69 158.396 38.802C158.396 38.9 158.382 38.998 158.354 39.096C158.326 39.194 158.291 39.292 158.249 39.39H158.123C157.969 39.278 157.801 39.194 157.619 39.138C157.437 39.082 157.22 39.054 156.968 39.054C156.464 39.054 156.002 39.229 155.582 39.579C155.162 39.929 154.777 40.468 154.427 41.196C154.091 41.924 153.776 42.862 153.482 44.01V40.398ZM153.629 48.042C153.545 48.056 153.468 48.063 153.398 48.063C153.342 48.077 153.279 48.084 153.209 48.084C153.153 48.084 153.09 48.084 153.02 48.084C152.726 48.084 152.474 48.056 152.264 48C152.054 47.944 151.886 47.86 151.76 47.748C151.634 47.636 151.543 47.503 151.487 47.349C151.431 47.181 151.403 46.992 151.403 46.782C151.403 46.208 151.403 45.648 151.403 45.102C151.403 44.542 151.403 43.996 151.403 43.464C151.403 42.918 151.403 42.386 151.403 41.868C151.403 41.336 151.403 40.811 151.403 40.293C151.403 39.775 151.403 39.257 151.403 38.739C151.403 38.319 151.375 37.955 151.319 37.647C151.277 37.325 151.193 37.031 151.067 36.765C151.137 36.737 151.207 36.723 151.277 36.723C151.361 36.709 151.438 36.695 151.508 36.681C151.592 36.667 151.669 36.66 151.739 36.66C152.089 36.66 152.404 36.751 152.684 36.933C152.978 37.101 153.209 37.388 153.377 37.794C153.545 38.186 153.629 38.732 153.629 39.432C153.629 40.006 153.629 40.594 153.629 41.196C153.629 41.784 153.629 42.372 153.629 42.96C153.629 43.548 153.629 44.136 153.629 44.724C153.629 45.298 153.629 45.865 153.629 46.425C153.629 46.971 153.629 47.51 153.629 48.042ZM168.35 45.9C168.35 45.508 168.35 45.081 168.35 44.619C168.35 44.157 168.35 43.688 168.35 43.212C168.35 42.722 168.35 42.232 168.35 41.742C168.35 41.252 168.35 40.769 168.35 40.293C168.35 39.817 168.35 39.362 168.35 38.928L168.245 38.907C168.147 38.949 168.042 38.991 167.93 39.033C167.832 39.075 167.734 39.11 167.636 39.138C167.538 39.166 167.433 39.187 167.321 39.201C167.223 39.215 167.118 39.222 167.006 39.222C166.754 39.222 166.551 39.11 166.397 38.886C166.257 38.648 166.187 38.305 166.187 37.857C166.187 37.661 166.201 37.472 166.229 37.29C166.257 37.108 166.292 36.94 166.334 36.786C166.488 36.758 166.635 36.737 166.775 36.723C166.929 36.695 167.083 36.674 167.237 36.66C167.391 36.646 167.538 36.632 167.678 36.618C167.832 36.604 167.979 36.597 168.119 36.597C168.259 36.583 168.406 36.576 168.56 36.576C168.952 36.576 169.302 36.625 169.61 36.723C169.918 36.821 170.156 36.975 170.324 37.185C170.492 37.381 170.576 37.64 170.576 37.962C170.576 38.536 170.576 39.131 170.576 39.747C170.576 40.363 170.576 40.986 170.576 41.616C170.576 42.246 170.576 42.869 170.576 43.485C170.576 44.087 170.576 44.668 170.576 45.228C170.576 45.578 170.583 45.9 170.597 46.194C170.625 46.474 170.667 46.761 170.723 47.055C170.779 47.335 170.856 47.65 170.954 48C170.814 48.028 170.674 48.049 170.534 48.063C170.408 48.077 170.275 48.084 170.135 48.084C169.519 48.084 169.064 47.937 168.77 47.643C168.49 47.335 168.35 46.754 168.35 45.9ZM167.825 32.187C167.909 32.159 168.007 32.131 168.119 32.103C168.245 32.075 168.371 32.054 168.497 32.04C168.623 32.012 168.749 31.998 168.875 31.998C169.015 31.984 169.148 31.977 169.274 31.977C169.792 31.977 170.212 32.068 170.534 32.25C170.856 32.418 171.017 32.712 171.017 33.132V34.476C170.933 34.504 170.835 34.532 170.723 34.56C170.625 34.588 170.52 34.616 170.408 34.644C170.296 34.658 170.177 34.672 170.051 34.686C169.939 34.686 169.82 34.686 169.694 34.686C169.148 34.686 168.7 34.567 168.35 34.329C168 34.077 167.825 33.748 167.825 33.342V32.187ZM189.258 48C189.174 48.014 189.09 48.028 189.006 48.042C188.922 48.056 188.831 48.063 188.733 48.063C188.649 48.077 188.551 48.084 188.439 48.084C187.991 48.084 187.62 48.014 187.326 47.874C187.046 47.72 186.836 47.447 186.696 47.055C186.556 46.649 186.486 46.089 186.486 45.375C186.486 45.025 186.486 44.689 186.486 44.367C186.5 44.045 186.521 43.723 186.549 43.401C186.577 43.079 186.605 42.743 186.633 42.393C186.661 42.043 186.696 41.672 186.738 41.28C186.794 40.874 186.857 40.44 186.927 39.978C186.829 39.628 186.689 39.376 186.507 39.222C186.325 39.068 186.066 38.991 185.73 38.991C185.38 38.991 185.044 39.11 184.722 39.348C184.4 39.572 184.071 39.964 183.735 40.524C183.399 41.07 183.014 41.84 182.58 42.834V39.789H182.958C183.238 39.131 183.56 38.564 183.924 38.088C184.302 37.598 184.708 37.22 185.142 36.954C185.59 36.688 186.024 36.555 186.444 36.555C186.822 36.555 187.158 36.653 187.452 36.849C187.76 37.031 188.019 37.29 188.229 37.626C188.453 37.948 188.621 38.305 188.733 38.697C188.859 39.089 188.922 39.495 188.922 39.915C188.922 40.279 188.922 40.664 188.922 41.07C188.922 41.476 188.922 41.896 188.922 42.33C188.922 42.75 188.922 43.184 188.922 43.632C188.922 44.08 188.922 44.528 188.922 44.976C188.922 45.578 188.943 46.096 188.985 46.53C189.027 46.964 189.118 47.454 189.258 48ZM182.832 48C182.762 48.014 182.678 48.028 182.58 48.042C182.482 48.056 182.377 48.063 182.265 48.063C182.167 48.077 182.048 48.084 181.908 48.084C181.586 48.084 181.313 48 181.089 47.832C180.865 47.65 180.697 47.356 180.585 46.95C180.473 46.544 180.417 45.998 180.417 45.312C180.417 44.976 180.417 44.661 180.417 44.367C180.431 44.059 180.452 43.751 180.48 43.443C180.508 43.121 180.536 42.785 180.564 42.435C180.592 42.085 180.627 41.714 180.669 41.322C180.711 40.916 180.767 40.461 180.837 39.957C180.753 39.747 180.655 39.572 180.543 39.432C180.445 39.278 180.326 39.166 180.186 39.096C180.046 39.026 179.864 38.991 179.64 38.991C179.304 38.991 178.975 39.11 178.653 39.348C178.345 39.572 178.016 39.971 177.666 40.545C177.33 41.105 176.945 41.882 176.511 42.876V39.789H176.91C177.19 39.131 177.512 38.564 177.876 38.088C178.24 37.598 178.639 37.227 179.073 36.975C179.507 36.709 179.955 36.576 180.417 36.576C180.795 36.576 181.131 36.681 181.425 36.891C181.719 37.101 181.971 37.374 182.181 37.71C182.391 38.046 182.552 38.41 182.664 38.802C182.776 39.18 182.832 39.551 182.832 39.915C182.832 40.531 182.832 41.168 182.832 41.826C182.832 42.47 182.832 43.135 182.832 43.821C182.832 44.493 182.832 45.179 182.832 45.879C182.832 46.579 182.832 47.286 182.832 48ZM176.784 48.042C176.728 48.056 176.672 48.063 176.616 48.063C176.56 48.077 176.504 48.084 176.448 48.084C176.392 48.098 176.322 48.105 176.238 48.105C176.168 48.119 176.091 48.126 176.007 48.126C175.769 48.126 175.552 48.105 175.356 48.063C175.174 48.021 175.013 47.944 174.873 47.832C174.733 47.706 174.621 47.538 174.537 47.328C174.467 47.118 174.432 46.831 174.432 46.467C174.432 45.613 174.432 44.759 174.432 43.905C174.432 43.051 174.432 42.197 174.432 41.343C174.432 40.489 174.432 39.635 174.432 38.781C174.432 38.347 174.411 37.983 174.369 37.689C174.341 37.395 174.278 37.08 174.18 36.744C174.236 36.73 174.292 36.716 174.348 36.702C174.404 36.688 174.453 36.681 174.495 36.681C174.551 36.667 174.607 36.66 174.663 36.66C174.719 36.66 174.775 36.66 174.831 36.66C175.069 36.66 175.307 36.716 175.545 36.828C175.783 36.94 175.993 37.108 176.175 37.332C176.357 37.542 176.504 37.815 176.616 38.151C176.728 38.487 176.784 38.879 176.784 39.327C176.784 40.293 176.784 41.259 176.784 42.225C176.784 43.191 176.784 44.164 176.784 45.144C176.784 46.11 176.784 47.076 176.784 48.042ZM201.073 40.587C201.073 40.937 201.073 41.287 201.073 41.637C201.073 41.987 201.073 42.337 201.073 42.687C201.073 43.037 201.073 43.394 201.073 43.758C201.073 44.108 201.073 44.458 201.073 44.808C201.073 45.004 201.073 45.186 201.073 45.354C201.087 45.508 201.101 45.669 201.115 45.837C201.185 45.879 201.262 45.914 201.346 45.942C201.43 45.956 201.507 45.963 201.577 45.963C201.745 45.963 201.906 45.942 202.06 45.9C202.214 45.844 202.354 45.767 202.48 45.669H202.606C202.62 45.739 202.627 45.802 202.627 45.858C202.641 45.9 202.648 45.956 202.648 46.026C202.648 46.348 202.592 46.663 202.48 46.971C202.382 47.265 202.249 47.503 202.081 47.685C201.899 47.853 201.717 47.972 201.535 48.042C201.367 48.126 201.185 48.168 200.989 48.168C200.653 48.168 200.338 48.091 200.044 47.937C199.764 47.769 199.526 47.552 199.33 47.286C199.148 47.006 199.001 46.691 198.889 46.341C198.777 45.991 198.721 45.634 198.721 45.27C198.721 44.878 198.721 44.479 198.721 44.073C198.721 43.653 198.721 43.282 198.721 42.96C198.721 42.484 198.728 42.05 198.742 41.658C198.77 41.266 198.798 40.881 198.826 40.503C198.854 40.125 198.882 39.74 198.91 39.348C198.672 39.194 198.42 39.075 198.154 38.991C197.888 38.893 197.594 38.823 197.272 38.781C196.964 38.739 196.614 38.718 196.222 38.718C195.802 38.718 195.41 38.739 195.046 38.781C194.682 38.823 194.332 38.879 193.996 38.949C193.674 39.019 193.352 39.11 193.03 39.222H192.904C192.89 39.124 192.869 39.012 192.841 38.886C192.827 38.76 192.82 38.627 192.82 38.487C192.82 38.249 192.855 38.018 192.925 37.794C192.995 37.57 193.107 37.388 193.261 37.248C193.401 37.094 193.625 36.968 193.933 36.87C194.241 36.772 194.626 36.702 195.088 36.66C195.55 36.604 196.089 36.576 196.705 36.576C197.419 36.576 198.042 36.688 198.574 36.912C199.12 37.122 199.575 37.416 199.939 37.794C200.317 38.172 200.597 38.599 200.779 39.075C200.975 39.551 201.073 40.055 201.073 40.587ZM194.29 44.934C194.29 45.396 194.402 45.725 194.626 45.921C194.85 46.117 195.235 46.215 195.781 46.215C196.131 46.215 196.488 46.152 196.852 46.026C197.216 45.9 197.587 45.697 197.965 45.417C198.343 45.137 198.707 44.773 199.057 44.325L199.078 45.984H198.742C198.546 46.362 198.266 46.719 197.902 47.055C197.552 47.391 197.139 47.671 196.663 47.895C196.201 48.105 195.69 48.21 195.13 48.21C194.458 48.21 193.884 48.091 193.408 47.853C192.932 47.615 192.568 47.265 192.316 46.803C192.064 46.327 191.938 45.739 191.938 45.039V44.913C191.938 44.479 192.036 44.066 192.232 43.674C192.428 43.282 192.694 42.925 193.03 42.603C193.38 42.281 193.786 42.029 194.248 41.847C194.724 41.665 195.235 41.574 195.781 41.574C196.355 41.574 196.887 41.609 197.377 41.679C197.881 41.735 198.315 41.819 198.679 41.931C199.043 42.029 199.295 42.141 199.435 42.267C199.519 42.337 199.589 42.428 199.645 42.54C199.701 42.638 199.743 42.771 199.771 42.939C199.799 43.093 199.813 43.282 199.813 43.506C199.421 43.408 199.029 43.338 198.637 43.296C198.245 43.24 197.853 43.198 197.461 43.17C197.083 43.142 196.712 43.128 196.348 43.128C195.942 43.128 195.592 43.163 195.298 43.233C195.004 43.289 194.745 43.387 194.521 43.527C194.451 43.723 194.395 43.933 194.353 44.157C194.311 44.367 194.29 44.605 194.29 44.871V44.934ZM206.193 46.53C206.193 46.25 206.235 45.991 206.319 45.753C206.417 45.515 206.557 45.298 206.739 45.102C206.921 44.892 207.138 44.724 207.39 44.598V44.283L208.881 44.367C208.671 44.577 208.517 44.815 208.419 45.081C208.321 45.347 208.272 45.627 208.272 45.921C208.272 46.131 208.342 46.299 208.482 46.425C208.622 46.551 208.839 46.628 209.133 46.656L211.695 46.845C212.269 46.887 212.759 47.027 213.165 47.265C213.585 47.489 213.907 47.79 214.131 48.168C214.355 48.546 214.467 48.973 214.467 49.449V49.68C214.467 50.184 214.355 50.653 214.131 51.087C213.907 51.521 213.55 51.899 213.06 52.221C212.584 52.543 211.961 52.795 211.191 52.977C210.421 53.159 209.483 53.25 208.377 53.25H207.852C206.928 53.25 206.151 53.124 205.521 52.872C204.905 52.634 204.436 52.305 204.114 51.885C203.792 51.479 203.631 51.017 203.631 50.499V50.31C203.631 49.834 203.75 49.407 203.988 49.029C204.226 48.651 204.562 48.343 204.996 48.105C205.43 47.867 205.927 47.727 206.487 47.685V47.265L207.684 48.084C207.264 48.196 206.914 48.35 206.634 48.546C206.368 48.742 206.172 48.966 206.046 49.218C205.92 49.47 205.857 49.764 205.857 50.1V50.268C205.857 50.576 205.941 50.835 206.109 51.045C206.277 51.255 206.536 51.416 206.886 51.528C207.236 51.64 207.663 51.696 208.167 51.696H208.776C209.462 51.696 210.057 51.661 210.561 51.591C211.065 51.535 211.548 51.423 212.01 51.255C212.108 51.115 212.171 50.954 212.199 50.772C212.241 50.59 212.262 50.408 212.262 50.226V50.079C212.262 49.757 212.164 49.484 211.968 49.26C211.772 49.036 211.471 48.91 211.065 48.882L208.776 48.735C208.23 48.693 207.761 48.567 207.369 48.357C206.991 48.147 206.697 47.881 206.487 47.559C206.291 47.237 206.193 46.894 206.193 46.53ZM209.763 38.256L211.8 38.235V38.76C212.262 39.012 212.633 39.341 212.913 39.747C213.207 40.139 213.354 40.615 213.354 41.175V41.343C213.354 42.029 213.158 42.617 212.766 43.107C212.374 43.597 211.835 43.975 211.149 44.241C210.477 44.507 209.707 44.64 208.839 44.64C207.915 44.654 207.096 44.507 206.382 44.199C205.668 43.891 205.108 43.443 204.702 42.855C204.31 42.267 204.114 41.567 204.114 40.755V40.608C204.114 39.782 204.317 39.068 204.723 38.466C205.143 37.85 205.745 37.367 206.529 37.017C207.327 36.667 208.293 36.492 209.427 36.492C210.323 36.492 211.142 36.513 211.884 36.555C212.64 36.597 213.452 36.66 214.32 36.744C214.348 36.814 214.369 36.912 214.383 37.038C214.397 37.164 214.404 37.29 214.404 37.416C214.404 37.808 214.341 38.13 214.215 38.382C214.103 38.634 213.907 38.76 213.627 38.76C213.361 38.76 213.053 38.739 212.703 38.697C212.367 38.641 211.926 38.592 211.38 38.55C210.834 38.494 210.134 38.466 209.28 38.466C208.272 38.466 207.502 38.669 206.97 39.075C206.438 39.467 206.172 40.076 206.172 40.902V41.028C206.172 41.238 206.207 41.476 206.277 41.742C206.347 42.008 206.48 42.267 206.676 42.519C206.998 42.659 207.32 42.764 207.642 42.834C207.978 42.89 208.37 42.918 208.818 42.918C209.616 42.918 210.239 42.75 210.687 42.414C211.149 42.078 211.38 41.581 211.38 40.923V40.755C211.38 40.489 211.338 40.209 211.254 39.915C211.17 39.607 211.009 39.306 210.771 39.012C210.547 38.718 210.211 38.466 209.763 38.256ZM221.804 36.513C222.742 36.513 223.533 36.702 224.177 37.08C224.835 37.458 225.332 37.983 225.668 38.655C226.018 39.313 226.193 40.062 226.193 40.902V41.007C226.193 41.483 226.165 41.875 226.109 42.183C226.053 42.477 225.969 42.694 225.857 42.834C225.745 42.974 225.605 43.044 225.437 43.044H220.103C219.781 43.044 219.487 43.002 219.221 42.918C218.969 42.834 218.766 42.722 218.612 42.582L218.213 42.792L218.255 41.595H223.904C223.932 41.455 223.953 41.308 223.967 41.154C223.995 41 224.009 40.853 224.009 40.713C224.009 40.279 223.953 39.901 223.841 39.579C223.743 39.243 223.582 38.942 223.358 38.676C223.148 38.592 222.945 38.536 222.749 38.508C222.553 38.466 222.28 38.445 221.93 38.445C220.908 38.445 220.082 38.83 219.452 39.6C218.822 40.37 218.507 41.525 218.507 43.065V43.254C218.507 43.562 218.521 43.856 218.549 44.136C218.591 44.402 218.654 44.654 218.738 44.892C218.836 45.13 218.941 45.354 219.053 45.564C219.431 45.788 219.844 45.956 220.292 46.068C220.74 46.166 221.293 46.215 221.951 46.215C222.441 46.215 222.903 46.18 223.337 46.11C223.771 46.026 224.184 45.9 224.576 45.732C224.982 45.564 225.367 45.347 225.731 45.081H225.857C225.871 45.179 225.885 45.284 225.899 45.396C225.913 45.494 225.92 45.606 225.92 45.732C225.92 46.096 225.871 46.404 225.773 46.656C225.675 46.894 225.535 47.104 225.353 47.286C225.129 47.51 224.835 47.699 224.471 47.853C224.121 47.993 223.729 48.098 223.295 48.168C222.861 48.238 222.392 48.273 221.888 48.273C221.09 48.273 220.348 48.154 219.662 47.916C218.976 47.664 218.381 47.307 217.877 46.845C217.373 46.383 216.981 45.816 216.701 45.144C216.421 44.458 216.281 43.681 216.281 42.813V42.624C216.281 41.658 216.421 40.804 216.701 40.062C216.981 39.306 217.366 38.662 217.856 38.13C218.36 37.598 218.948 37.199 219.62 36.933C220.292 36.653 221.02 36.513 221.804 36.513Z" fill="#0F1949"/>
</svg>
