<svg width="229" height="146" viewBox="0 0 229 146" fill="none" xmlns="http://www.w3.org/2000/svg">
<path d="M227.731 72.3182L214.823 77.6596C214.462 77.8088 214.404 78.2951 214.719 78.5253L226.292 86.9825C226.605 87.211 227.047 87.0125 227.084 86.6269L228.42 72.8284C228.456 72.4529 228.08 72.174 227.731 72.3182Z" fill="#0F1949"/>
<path d="M81.1083 59.119C80.8213 58.3419 79.9587 57.9446 79.1815 58.2316C78.4044 58.5185 78.0071 59.3812 78.294 60.1583L81.1083 59.119ZM131.241 95.8425L131.241 97.3425L131.241 97.3425L131.241 95.8425ZM157.514 76.3578L158.957 76.7699L157.514 76.3578ZM130.864 78.6206L129.371 78.7633L129.38 78.8616L129.403 78.9578L130.864 78.6206ZM79.9353 64.1402C80.279 64.894 81.1687 65.2263 81.9225 64.8825C82.6762 64.5388 83.0085 63.6491 82.6648 62.8953L79.9353 64.1402ZM86.5881 70.0599C86.1383 69.3642 85.2097 69.1649 84.514 69.6147C83.8183 70.0644 83.619 70.993 84.0688 71.6887L86.5881 70.0599ZM89.2606 78.5557C89.8078 79.1778 90.7556 79.2385 91.3776 78.6914C91.9997 78.1443 92.0604 77.1965 91.5133 76.5744L89.2606 78.5557ZM97.3494 82.2764C96.7143 81.7445 95.7683 81.8282 95.2364 82.4633C94.7045 83.0984 94.7881 84.0445 95.4233 84.5764L97.3494 82.2764ZM102.447 89.5779C103.158 90.0036 104.079 89.7725 104.505 89.0618C104.93 88.3511 104.699 87.4299 103.989 87.0043L102.447 89.5779ZM111.289 90.6165C110.519 90.3099 109.647 90.6851 109.34 91.4547C109.034 92.2243 109.409 93.0967 110.178 93.4034L111.289 90.6165ZM118.416 95.9483C119.224 96.1298 120.026 95.6217 120.208 94.8134C120.389 94.0052 119.881 93.2027 119.073 93.0212L118.416 95.9483ZM127.149 94.1992C126.322 94.1407 125.605 94.7632 125.546 95.5896C125.488 96.4159 126.111 97.1332 126.937 97.1917L127.149 94.1992ZM135.848 97.0328C136.669 96.9199 137.243 96.163 137.13 95.3423C137.017 94.5216 136.26 93.9479 135.439 94.0608L135.848 97.0328ZM143.404 91.6733C142.66 92.038 142.352 92.9366 142.717 93.6804C143.082 94.4243 143.981 94.7316 144.724 94.367L143.404 91.6733ZM152.232 88.8552C152.802 88.2538 152.776 87.3044 152.175 86.7347C151.574 86.165 150.624 86.1907 150.054 86.7921L152.232 88.8552ZM154.637 79.8887C154.297 80.6442 154.634 81.5322 155.39 81.8721C156.145 82.212 157.033 81.8751 157.373 81.1197L154.637 79.8887ZM159.778 72.0287C159.822 71.2014 159.186 70.4954 158.359 70.4519C157.532 70.4083 156.826 71.0436 156.782 71.8709L159.778 72.0287ZM154.733 64.406C155.228 65.0706 156.167 65.2082 156.832 64.7136C157.496 64.2189 157.634 63.2792 157.139 62.6146L154.733 64.406ZM148.825 57.4123C148.015 57.2383 147.217 57.7539 147.043 58.5638C146.869 59.3738 147.385 60.1714 148.195 60.3454L148.825 57.4123ZM140.351 61.1337C141.11 60.8023 141.457 59.9182 141.125 59.1589C140.794 58.3996 139.91 58.0528 139.151 58.3841L140.351 61.1337ZM131.905 64.8595C131.485 65.5737 131.724 66.493 132.438 66.9126C133.153 67.3323 134.072 67.0935 134.491 66.3793L131.905 64.8595ZM132.269 74.2342C132.32 73.4074 131.691 72.6958 130.864 72.6449C130.037 72.594 129.326 73.2231 129.275 74.0499L132.269 74.2342ZM130.594 82.856C130.892 83.629 131.76 84.0142 132.533 83.7163C133.306 83.4183 133.692 82.5502 133.394 81.7772L130.594 82.856ZM136.955 88.1041C136.45 87.4475 135.508 87.3248 134.852 87.83C134.195 88.3352 134.073 89.277 134.578 89.9336L136.955 88.1041ZM140.305 95.6326C140.961 96.1395 141.903 96.0193 142.41 95.364C142.917 94.7088 142.796 93.7667 142.141 93.2598L140.305 95.6326ZM148.444 97.134C147.699 96.7718 146.801 97.0822 146.439 97.8273C146.077 98.5724 146.387 99.47 147.132 99.8321L148.444 97.134ZM154.561 102.696C155.355 102.933 156.19 102.48 156.427 101.686C156.663 100.892 156.211 100.057 155.417 99.8209L154.561 102.696ZM162.746 101.465C161.928 101.336 161.16 101.895 161.032 102.714C160.903 103.532 161.462 104.3 162.281 104.428L162.746 101.465ZM170.134 105.192C170.962 105.225 171.66 104.581 171.693 103.753C171.727 102.925 171.083 102.227 170.255 102.194L170.134 105.192ZM177.814 102.091C176.987 102.146 176.361 102.861 176.416 103.687C176.471 104.514 177.186 105.14 178.012 105.085L177.814 102.091ZM185.833 104.155C186.649 104.015 187.197 103.239 187.057 102.422C186.916 101.606 186.14 101.058 185.324 101.199L185.833 104.155ZM192.692 99.522C191.895 99.7496 191.434 100.58 191.662 101.376C191.889 102.173 192.719 102.634 193.516 102.407L192.692 99.522ZM200.966 99.8019C201.73 99.4819 202.09 98.603 201.77 97.8389C201.45 97.0748 200.571 96.7148 199.807 97.0349L200.966 99.8019ZM206.527 93.6789C205.814 94.1002 205.577 95.02 205.999 95.7333C206.42 96.4465 207.34 96.6832 208.053 96.2618L206.527 93.6789ZM214.564 91.6782C215.198 91.1455 215.281 90.1993 214.748 89.5649C214.215 88.9305 213.269 88.8481 212.635 89.3809L214.564 91.6782ZM217.814 84.0913C217.299 84.7403 217.408 85.6838 218.057 86.1987C218.706 86.7136 219.65 86.6049 220.165 85.956L217.814 84.0913ZM78.294 60.1583C78.7881 61.4962 79.3355 62.8252 79.9353 64.1402L82.6648 62.8953C82.0957 61.6475 81.5766 60.3871 81.1083 59.119L78.294 60.1583ZM84.0688 71.6887C85.6128 74.077 87.3454 76.3782 89.2606 78.5557L91.5133 76.5744C89.6976 74.51 88.0538 72.327 86.5881 70.0599L84.0688 71.6887ZM95.4233 84.5764C97.6029 86.4018 99.946 88.0799 102.447 89.5779L103.989 87.0043C101.626 85.5894 99.4115 84.0034 97.3494 82.2764L95.4233 84.5764ZM110.178 93.4034C112.794 94.4459 115.542 95.3029 118.416 95.9483L119.073 93.0212C116.355 92.4108 113.759 91.6008 111.289 90.6165L110.178 93.4034ZM126.937 97.1917C128.347 97.2914 129.782 97.3425 131.241 97.3425L131.241 94.3425C129.852 94.3425 128.488 94.2939 127.149 94.1992L126.937 97.1917ZM131.241 97.3425C132.813 97.3425 134.351 97.2387 135.848 97.0328L135.439 94.0608C134.083 94.2475 132.681 94.3425 131.241 94.3425L131.241 97.3425ZM144.724 94.367C147.539 92.9867 150.068 91.1397 152.232 88.8552L150.054 86.7921C148.141 88.8126 145.903 90.4477 143.404 91.6733L144.724 94.367ZM157.373 81.1197C157.991 79.7458 158.521 78.2948 158.957 76.7699L156.072 75.9457C155.675 77.3363 155.194 78.6511 154.637 79.8887L157.373 81.1197ZM158.957 76.7699C159.432 75.1062 159.7 73.5239 159.778 72.0287L156.782 71.8709C156.717 73.1204 156.491 74.479 156.072 75.9457L158.957 76.7699ZM157.139 62.6146C155.088 59.8591 152.078 58.1111 148.825 57.4123L148.195 60.3454C150.825 60.9106 153.167 62.3027 154.733 64.406L157.139 62.6146ZM139.151 58.3841C136.29 59.6328 133.716 61.778 131.905 64.8595L134.491 66.3793C135.971 63.862 138.05 62.1376 140.351 61.1337L139.151 58.3841ZM129.275 74.0499C129.184 75.5274 129.212 77.0982 129.371 78.7633L132.357 78.4778C132.212 76.9575 132.189 75.5441 132.269 74.2342L129.275 74.0499ZM129.403 78.9578C129.714 80.3088 130.114 81.6083 130.594 82.856L133.394 81.7772C132.964 80.6622 132.606 79.4979 132.326 78.2833L129.403 78.9578ZM134.578 89.9336C136.218 92.0657 138.148 93.9633 140.305 95.6326L142.141 93.2598C140.169 91.7344 138.427 90.0162 136.955 88.1041L134.578 89.9336ZM147.132 99.8321C149.474 100.97 151.964 101.923 154.561 102.696L155.417 99.8209C152.963 99.0902 150.626 98.1946 148.444 97.134L147.132 99.8321ZM162.281 104.428C164.848 104.832 167.477 105.085 170.134 105.192L170.255 102.194C167.708 102.092 165.194 101.849 162.746 101.465L162.281 104.428ZM178.012 105.085C180.629 104.911 183.245 104.6 185.833 104.155L185.324 101.199C182.84 101.626 180.327 101.924 177.814 102.091L178.012 105.085ZM193.516 102.407C196.069 101.677 198.564 100.808 200.966 99.8019L199.807 97.0349C197.519 97.9933 195.137 98.8234 192.692 99.522L193.516 102.407ZM208.053 96.2618C210.375 94.8901 212.559 93.3619 214.564 91.6782L212.635 89.3809C210.766 90.9499 208.719 92.384 206.527 93.6789L208.053 96.2618ZM220.165 85.956C221.002 84.9008 221.777 83.8028 222.485 82.6621L219.936 81.08C219.291 82.1193 218.582 83.1233 217.814 84.0913L220.165 85.956Z" fill="#0F1949"/>
<path d="M8.148 48.063C8.022 48.091 7.91 48.112 7.812 48.126C7.714 48.14 7.616 48.154 7.518 48.168C7.42 48.182 7.308 48.189 7.182 48.189C6.748 48.189 6.412 48.119 6.174 47.979C5.936 47.825 5.768 47.622 5.67 47.37C5.586 47.104 5.544 46.81 5.544 46.488C5.544 45.83 5.544 45.172 5.544 44.514C5.544 43.856 5.544 43.198 5.544 42.54H7.896C7.896 42.904 7.896 43.268 7.896 43.632C7.896 43.982 7.896 44.339 7.896 44.703C7.896 45.067 7.896 45.424 7.896 45.774C7.896 46.194 7.91 46.593 7.938 46.971C7.98 47.349 8.05 47.713 8.148 48.063ZM0.966 33.237C1.12 33.195 1.281 33.167 1.449 33.153C1.631 33.125 1.806 33.111 1.974 33.111C2.338 33.111 2.625 33.153 2.835 33.237C3.045 33.307 3.206 33.454 3.318 33.678C3.43 33.888 3.507 34.189 3.549 34.581C3.661 35.295 3.808 35.974 3.99 36.618C4.172 37.262 4.396 37.878 4.662 38.466C4.928 39.054 5.243 39.642 5.607 40.23C5.985 40.804 6.426 41.399 6.93 42.015L6.027 41.553H7.392L6.447 42.015C7.007 41.343 7.49 40.685 7.896 40.041C8.316 39.397 8.673 38.732 8.967 38.046C9.261 37.36 9.499 36.632 9.681 35.862C9.877 35.078 10.031 34.203 10.143 33.237C10.297 33.195 10.458 33.167 10.626 33.153C10.808 33.125 10.99 33.111 11.172 33.111C11.592 33.111 11.907 33.216 12.117 33.426C12.341 33.622 12.439 33.881 12.411 34.203C12.313 35.015 12.159 35.799 11.949 36.555C11.739 37.311 11.473 38.025 11.151 38.697C10.843 39.369 10.493 40.006 10.101 40.608C9.723 41.21 9.31 41.77 8.862 42.288C8.428 42.792 7.98 43.247 7.518 43.653C7.224 43.653 6.972 43.653 6.762 43.653C6.552 43.639 6.363 43.611 6.195 43.569C6.041 43.527 5.894 43.471 5.754 43.401C5.628 43.317 5.495 43.205 5.355 43.065C4.921 42.645 4.508 42.197 4.116 41.721C3.738 41.231 3.381 40.706 3.045 40.146C2.723 39.572 2.429 38.942 2.163 38.256C1.911 37.57 1.68 36.814 1.47 35.988C1.274 35.148 1.106 34.231 0.966 33.237ZM18.3186 36.555C19.0046 36.555 19.6486 36.695 20.2506 36.975C20.8666 37.241 21.4056 37.647 21.8676 38.193C22.3296 38.725 22.6936 39.376 22.9596 40.146C23.2256 40.916 23.3586 41.812 23.3586 42.834V43.065C23.3586 44.115 23.1416 45.032 22.7076 45.816C22.2876 46.586 21.6926 47.181 20.9226 47.601C20.1526 48.021 19.2496 48.231 18.2136 48.231C17.4996 48.231 16.8346 48.126 16.2186 47.916C15.6166 47.692 15.0846 47.37 14.6226 46.95C14.1746 46.516 13.8246 45.977 13.5726 45.333C13.3206 44.675 13.1946 43.919 13.1946 43.065V42.834C13.1946 41.56 13.4116 40.454 13.8456 39.516C14.2936 38.578 14.9026 37.85 15.6726 37.332C16.4426 36.814 17.3246 36.555 18.3186 36.555ZM18.5706 38.676C17.8566 38.676 17.2616 38.851 16.7856 39.201C16.3096 39.537 15.9526 40.027 15.7146 40.671C15.4766 41.315 15.3576 42.085 15.3576 42.981V43.107C15.3576 43.639 15.4206 44.15 15.5466 44.64C15.6726 45.13 15.8966 45.564 16.2186 45.942C16.4986 46.012 16.7646 46.061 17.0166 46.089C17.2826 46.117 17.5836 46.131 17.9196 46.131C18.6756 46.131 19.2916 46.012 19.7676 45.774C20.2436 45.522 20.6006 45.158 20.8386 44.682C21.0766 44.192 21.1956 43.611 21.1956 42.939V42.792C21.1956 41.952 21.1046 41.203 20.9226 40.545C20.7406 39.873 20.4466 39.306 20.0406 38.844C19.8446 38.774 19.6276 38.732 19.3896 38.718C19.1516 38.69 18.8786 38.676 18.5706 38.676ZM26.7314 36.681C27.1514 36.681 27.5084 36.758 27.8024 36.912C28.0964 37.066 28.3204 37.346 28.4744 37.752C28.6284 38.158 28.7054 38.732 28.7054 39.474C28.7054 39.922 28.6914 40.349 28.6634 40.755C28.6494 41.161 28.6214 41.574 28.5794 41.994C28.5374 42.414 28.4884 42.848 28.4324 43.296C28.3764 43.744 28.2994 44.234 28.2014 44.766C28.3414 45.102 28.5024 45.361 28.6844 45.543C28.8804 45.711 29.1114 45.795 29.3774 45.795C29.7694 45.795 30.1544 45.683 30.5324 45.459C30.9104 45.221 31.2744 44.871 31.6244 44.409C31.9884 43.933 32.3174 43.331 32.6114 42.603C32.9194 41.875 33.1854 41.007 33.4094 39.999V44.43H33.0944C32.7864 45.158 32.4014 45.809 31.9394 46.383C31.4774 46.943 30.9734 47.391 30.4274 47.727C29.8814 48.049 29.3074 48.21 28.7054 48.21C28.3554 48.21 28.0334 48.119 27.7394 47.937C27.4454 47.755 27.1864 47.51 26.9624 47.202C26.7524 46.88 26.5844 46.523 26.4584 46.131C26.3324 45.739 26.2694 45.347 26.2694 44.955C26.2694 44.367 26.2694 43.786 26.2694 43.212C26.2694 42.638 26.2694 42.064 26.2694 41.49C26.2694 40.916 26.2694 40.349 26.2694 39.789C26.2694 39.187 26.2414 38.669 26.1854 38.235C26.1434 37.801 26.0524 37.311 25.9124 36.765C26.0524 36.737 26.1854 36.716 26.3114 36.702C26.4374 36.688 26.5774 36.681 26.7314 36.681ZM33.8504 36.702C34.2284 36.702 34.5294 36.765 34.7534 36.891C34.9914 37.003 35.1594 37.171 35.2574 37.395C35.3694 37.605 35.4254 37.871 35.4254 38.193C35.4254 39.117 35.4254 40.02 35.4254 40.902C35.4254 41.784 35.4254 42.652 35.4254 43.506C35.4254 44.346 35.4254 45.186 35.4254 46.026C35.4254 46.306 35.4324 46.565 35.4464 46.803C35.4744 47.027 35.5094 47.237 35.5514 47.433C35.6074 47.629 35.6774 47.818 35.7614 48C35.6914 48.014 35.6144 48.028 35.5304 48.042C35.4604 48.056 35.3834 48.063 35.2994 48.063C35.2294 48.077 35.1594 48.084 35.0894 48.084C34.7394 48.084 34.4174 48 34.1234 47.832C33.8434 47.664 33.6194 47.384 33.4514 46.992C33.2974 46.586 33.2204 46.033 33.2204 45.333C33.2204 44.353 33.2204 43.38 33.2204 42.414C33.2204 41.434 33.2204 40.468 33.2204 39.516C33.2204 38.564 33.2204 37.647 33.2204 36.765C33.3044 36.737 33.3744 36.723 33.4304 36.723C33.5004 36.723 33.5634 36.723 33.6194 36.723C33.6894 36.709 33.7664 36.702 33.8504 36.702ZM40.9822 40.398H41.2552C41.4932 39.558 41.7732 38.844 42.0952 38.256C42.4172 37.668 42.7812 37.22 43.1872 36.912C43.6072 36.59 44.0552 36.429 44.5312 36.429C44.7692 36.429 44.9722 36.45 45.1402 36.492C45.3222 36.534 45.4622 36.611 45.5602 36.723C45.6862 36.849 45.7772 37.024 45.8332 37.248C45.9032 37.458 45.9382 37.759 45.9382 38.151C45.9382 38.263 45.9312 38.375 45.9172 38.487C45.9172 38.585 45.9102 38.69 45.8962 38.802C45.8962 38.9 45.8822 38.998 45.8542 39.096C45.8262 39.194 45.7912 39.292 45.7492 39.39H45.6232C45.4692 39.278 45.3012 39.194 45.1192 39.138C44.9372 39.082 44.7202 39.054 44.4682 39.054C43.9642 39.054 43.5022 39.229 43.0822 39.579C42.6622 39.929 42.2772 40.468 41.9272 41.196C41.5912 41.924 41.2762 42.862 40.9822 44.01V40.398ZM41.1292 48.042C41.0452 48.056 40.9682 48.063 40.8982 48.063C40.8422 48.077 40.7792 48.084 40.7092 48.084C40.6532 48.084 40.5902 48.084 40.5202 48.084C40.2262 48.084 39.9742 48.056 39.7642 48C39.5542 47.944 39.3862 47.86 39.2602 47.748C39.1342 47.636 39.0432 47.503 38.9872 47.349C38.9312 47.181 38.9032 46.992 38.9032 46.782C38.9032 46.208 38.9032 45.648 38.9032 45.102C38.9032 44.542 38.9032 43.996 38.9032 43.464C38.9032 42.918 38.9032 42.386 38.9032 41.868C38.9032 41.336 38.9032 40.811 38.9032 40.293C38.9032 39.775 38.9032 39.257 38.9032 38.739C38.9032 38.319 38.8752 37.955 38.8192 37.647C38.7772 37.325 38.6932 37.031 38.5672 36.765C38.6372 36.737 38.7072 36.723 38.7772 36.723C38.8612 36.709 38.9382 36.695 39.0082 36.681C39.0922 36.667 39.1692 36.66 39.2392 36.66C39.5892 36.66 39.9042 36.751 40.1842 36.933C40.4782 37.101 40.7092 37.388 40.8772 37.794C41.0452 38.186 41.1292 38.732 41.1292 39.432C41.1292 40.006 41.1292 40.594 41.1292 41.196C41.1292 41.784 41.1292 42.372 41.1292 42.96C41.1292 43.548 41.1292 44.136 41.1292 44.724C41.1292 45.298 41.1292 45.865 41.1292 46.425C41.1292 46.971 41.1292 47.51 41.1292 48.042ZM55.8502 45.9C55.8502 45.508 55.8502 45.081 55.8502 44.619C55.8502 44.157 55.8502 43.688 55.8502 43.212C55.8502 42.722 55.8502 42.232 55.8502 41.742C55.8502 41.252 55.8502 40.769 55.8502 40.293C55.8502 39.817 55.8502 39.362 55.8502 38.928L55.7452 38.907C55.6472 38.949 55.5422 38.991 55.4302 39.033C55.3322 39.075 55.2342 39.11 55.1362 39.138C55.0382 39.166 54.9332 39.187 54.8212 39.201C54.7232 39.215 54.6182 39.222 54.5062 39.222C54.2542 39.222 54.0512 39.11 53.8972 38.886C53.7572 38.648 53.6872 38.305 53.6872 37.857C53.6872 37.661 53.7012 37.472 53.7292 37.29C53.7572 37.108 53.7922 36.94 53.8342 36.786C53.9882 36.758 54.1352 36.737 54.2752 36.723C54.4292 36.695 54.5832 36.674 54.7372 36.66C54.8912 36.646 55.0382 36.632 55.1782 36.618C55.3322 36.604 55.4792 36.597 55.6192 36.597C55.7592 36.583 55.9062 36.576 56.0602 36.576C56.4522 36.576 56.8022 36.625 57.1102 36.723C57.4182 36.821 57.6562 36.975 57.8242 37.185C57.9922 37.381 58.0762 37.64 58.0762 37.962C58.0762 38.536 58.0762 39.131 58.0762 39.747C58.0762 40.363 58.0762 40.986 58.0762 41.616C58.0762 42.246 58.0762 42.869 58.0762 43.485C58.0762 44.087 58.0762 44.668 58.0762 45.228C58.0762 45.578 58.0832 45.9 58.0972 46.194C58.1252 46.474 58.1672 46.761 58.2232 47.055C58.2792 47.335 58.3562 47.65 58.4542 48C58.3142 48.028 58.1742 48.049 58.0342 48.063C57.9082 48.077 57.7752 48.084 57.6352 48.084C57.0192 48.084 56.5642 47.937 56.2702 47.643C55.9902 47.335 55.8502 46.754 55.8502 45.9ZM55.3252 32.187C55.4092 32.159 55.5072 32.131 55.6192 32.103C55.7452 32.075 55.8712 32.054 55.9972 32.04C56.1232 32.012 56.2492 31.998 56.3752 31.998C56.5152 31.984 56.6482 31.977 56.7742 31.977C57.2922 31.977 57.7122 32.068 58.0342 32.25C58.3562 32.418 58.5172 32.712 58.5172 33.132V34.476C58.4332 34.504 58.3352 34.532 58.2232 34.56C58.1252 34.588 58.0202 34.616 57.9082 34.644C57.7962 34.658 57.6772 34.672 57.5512 34.686C57.4392 34.686 57.3202 34.686 57.1942 34.686C56.6482 34.686 56.2002 34.567 55.8502 34.329C55.5002 34.077 55.3252 33.748 55.3252 33.342V32.187ZM76.758 48C76.674 48.014 76.59 48.028 76.506 48.042C76.422 48.056 76.331 48.063 76.233 48.063C76.149 48.077 76.051 48.084 75.939 48.084C75.491 48.084 75.12 48.014 74.826 47.874C74.546 47.72 74.336 47.447 74.196 47.055C74.056 46.649 73.986 46.089 73.986 45.375C73.986 45.025 73.986 44.689 73.986 44.367C74 44.045 74.021 43.723 74.049 43.401C74.077 43.079 74.105 42.743 74.133 42.393C74.161 42.043 74.196 41.672 74.238 41.28C74.294 40.874 74.357 40.44 74.427 39.978C74.329 39.628 74.189 39.376 74.007 39.222C73.825 39.068 73.566 38.991 73.23 38.991C72.88 38.991 72.544 39.11 72.222 39.348C71.9 39.572 71.571 39.964 71.235 40.524C70.899 41.07 70.514 41.84 70.08 42.834V39.789H70.458C70.738 39.131 71.06 38.564 71.424 38.088C71.802 37.598 72.208 37.22 72.642 36.954C73.09 36.688 73.524 36.555 73.944 36.555C74.322 36.555 74.658 36.653 74.952 36.849C75.26 37.031 75.519 37.29 75.729 37.626C75.953 37.948 76.121 38.305 76.233 38.697C76.359 39.089 76.422 39.495 76.422 39.915C76.422 40.279 76.422 40.664 76.422 41.07C76.422 41.476 76.422 41.896 76.422 42.33C76.422 42.75 76.422 43.184 76.422 43.632C76.422 44.08 76.422 44.528 76.422 44.976C76.422 45.578 76.443 46.096 76.485 46.53C76.527 46.964 76.618 47.454 76.758 48ZM70.332 48C70.262 48.014 70.178 48.028 70.08 48.042C69.982 48.056 69.877 48.063 69.765 48.063C69.667 48.077 69.548 48.084 69.408 48.084C69.086 48.084 68.813 48 68.589 47.832C68.365 47.65 68.197 47.356 68.085 46.95C67.973 46.544 67.917 45.998 67.917 45.312C67.917 44.976 67.917 44.661 67.917 44.367C67.931 44.059 67.952 43.751 67.98 43.443C68.008 43.121 68.036 42.785 68.064 42.435C68.092 42.085 68.127 41.714 68.169 41.322C68.211 40.916 68.267 40.461 68.337 39.957C68.253 39.747 68.155 39.572 68.043 39.432C67.945 39.278 67.826 39.166 67.686 39.096C67.546 39.026 67.364 38.991 67.14 38.991C66.804 38.991 66.475 39.11 66.153 39.348C65.845 39.572 65.516 39.971 65.166 40.545C64.83 41.105 64.445 41.882 64.011 42.876V39.789H64.41C64.69 39.131 65.012 38.564 65.376 38.088C65.74 37.598 66.139 37.227 66.573 36.975C67.007 36.709 67.455 36.576 67.917 36.576C68.295 36.576 68.631 36.681 68.925 36.891C69.219 37.101 69.471 37.374 69.681 37.71C69.891 38.046 70.052 38.41 70.164 38.802C70.276 39.18 70.332 39.551 70.332 39.915C70.332 40.531 70.332 41.168 70.332 41.826C70.332 42.47 70.332 43.135 70.332 43.821C70.332 44.493 70.332 45.179 70.332 45.879C70.332 46.579 70.332 47.286 70.332 48ZM64.284 48.042C64.228 48.056 64.172 48.063 64.116 48.063C64.06 48.077 64.004 48.084 63.948 48.084C63.892 48.098 63.822 48.105 63.738 48.105C63.668 48.119 63.591 48.126 63.507 48.126C63.269 48.126 63.052 48.105 62.856 48.063C62.674 48.021 62.513 47.944 62.373 47.832C62.233 47.706 62.121 47.538 62.037 47.328C61.967 47.118 61.932 46.831 61.932 46.467C61.932 45.613 61.932 44.759 61.932 43.905C61.932 43.051 61.932 42.197 61.932 41.343C61.932 40.489 61.932 39.635 61.932 38.781C61.932 38.347 61.911 37.983 61.869 37.689C61.841 37.395 61.778 37.08 61.68 36.744C61.736 36.73 61.792 36.716 61.848 36.702C61.904 36.688 61.953 36.681 61.995 36.681C62.051 36.667 62.107 36.66 62.163 36.66C62.219 36.66 62.275 36.66 62.331 36.66C62.569 36.66 62.807 36.716 63.045 36.828C63.283 36.94 63.493 37.108 63.675 37.332C63.857 37.542 64.004 37.815 64.116 38.151C64.228 38.487 64.284 38.879 64.284 39.327C64.284 40.293 64.284 41.259 64.284 42.225C64.284 43.191 64.284 44.164 64.284 45.144C64.284 46.11 64.284 47.076 64.284 48.042ZM88.5728 40.587C88.5728 40.937 88.5728 41.287 88.5728 41.637C88.5728 41.987 88.5728 42.337 88.5728 42.687C88.5728 43.037 88.5728 43.394 88.5728 43.758C88.5728 44.108 88.5728 44.458 88.5728 44.808C88.5728 45.004 88.5728 45.186 88.5728 45.354C88.5868 45.508 88.6008 45.669 88.6148 45.837C88.6848 45.879 88.7618 45.914 88.8458 45.942C88.9298 45.956 89.0068 45.963 89.0768 45.963C89.2448 45.963 89.4058 45.942 89.5598 45.9C89.7138 45.844 89.8538 45.767 89.9798 45.669H90.1058C90.1198 45.739 90.1268 45.802 90.1268 45.858C90.1408 45.9 90.1478 45.956 90.1478 46.026C90.1478 46.348 90.0918 46.663 89.9798 46.971C89.8818 47.265 89.7488 47.503 89.5808 47.685C89.3988 47.853 89.2168 47.972 89.0348 48.042C88.8668 48.126 88.6848 48.168 88.4888 48.168C88.1528 48.168 87.8378 48.091 87.5438 47.937C87.2638 47.769 87.0258 47.552 86.8298 47.286C86.6478 47.006 86.5008 46.691 86.3888 46.341C86.2768 45.991 86.2208 45.634 86.2208 45.27C86.2208 44.878 86.2208 44.479 86.2208 44.073C86.2208 43.653 86.2208 43.282 86.2208 42.96C86.2208 42.484 86.2278 42.05 86.2418 41.658C86.2698 41.266 86.2978 40.881 86.3258 40.503C86.3538 40.125 86.3818 39.74 86.4098 39.348C86.1718 39.194 85.9198 39.075 85.6538 38.991C85.3878 38.893 85.0938 38.823 84.7718 38.781C84.4638 38.739 84.1138 38.718 83.7218 38.718C83.3018 38.718 82.9098 38.739 82.5458 38.781C82.1818 38.823 81.8318 38.879 81.4958 38.949C81.1738 39.019 80.8518 39.11 80.5298 39.222H80.4038C80.3898 39.124 80.3688 39.012 80.3408 38.886C80.3268 38.76 80.3198 38.627 80.3198 38.487C80.3198 38.249 80.3548 38.018 80.4248 37.794C80.4948 37.57 80.6068 37.388 80.7608 37.248C80.9008 37.094 81.1248 36.968 81.4328 36.87C81.7408 36.772 82.1258 36.702 82.5878 36.66C83.0498 36.604 83.5888 36.576 84.2048 36.576C84.9188 36.576 85.5418 36.688 86.0738 36.912C86.6198 37.122 87.0748 37.416 87.4388 37.794C87.8168 38.172 88.0968 38.599 88.2788 39.075C88.4748 39.551 88.5728 40.055 88.5728 40.587ZM81.7898 44.934C81.7898 45.396 81.9018 45.725 82.1258 45.921C82.3498 46.117 82.7348 46.215 83.2808 46.215C83.6308 46.215 83.9878 46.152 84.3518 46.026C84.7158 45.9 85.0868 45.697 85.4648 45.417C85.8428 45.137 86.2068 44.773 86.5568 44.325L86.5778 45.984H86.2418C86.0458 46.362 85.7658 46.719 85.4018 47.055C85.0518 47.391 84.6388 47.671 84.1628 47.895C83.7008 48.105 83.1898 48.21 82.6298 48.21C81.9578 48.21 81.3838 48.091 80.9078 47.853C80.4318 47.615 80.0678 47.265 79.8158 46.803C79.5638 46.327 79.4378 45.739 79.4378 45.039V44.913C79.4378 44.479 79.5358 44.066 79.7318 43.674C79.9278 43.282 80.1938 42.925 80.5298 42.603C80.8798 42.281 81.2858 42.029 81.7478 41.847C82.2238 41.665 82.7348 41.574 83.2808 41.574C83.8548 41.574 84.3868 41.609 84.8768 41.679C85.3808 41.735 85.8148 41.819 86.1788 41.931C86.5428 42.029 86.7948 42.141 86.9348 42.267C87.0188 42.337 87.0888 42.428 87.1448 42.54C87.2008 42.638 87.2428 42.771 87.2708 42.939C87.2988 43.093 87.3128 43.282 87.3128 43.506C86.9208 43.408 86.5288 43.338 86.1368 43.296C85.7448 43.24 85.3528 43.198 84.9608 43.17C84.5828 43.142 84.2118 43.128 83.8478 43.128C83.4418 43.128 83.0918 43.163 82.7978 43.233C82.5038 43.289 82.2448 43.387 82.0208 43.527C81.9508 43.723 81.8948 43.933 81.8528 44.157C81.8108 44.367 81.7898 44.605 81.7898 44.871V44.934ZM93.6935 46.53C93.6935 46.25 93.7355 45.991 93.8195 45.753C93.9175 45.515 94.0575 45.298 94.2395 45.102C94.4215 44.892 94.6385 44.724 94.8905 44.598V44.283L96.3815 44.367C96.1715 44.577 96.0175 44.815 95.9195 45.081C95.8215 45.347 95.7725 45.627 95.7725 45.921C95.7725 46.131 95.8425 46.299 95.9825 46.425C96.1225 46.551 96.3395 46.628 96.6335 46.656L99.1955 46.845C99.7695 46.887 100.259 47.027 100.665 47.265C101.085 47.489 101.407 47.79 101.631 48.168C101.855 48.546 101.967 48.973 101.967 49.449V49.68C101.967 50.184 101.855 50.653 101.631 51.087C101.407 51.521 101.05 51.899 100.56 52.221C100.084 52.543 99.4615 52.795 98.6915 52.977C97.9215 53.159 96.9835 53.25 95.8775 53.25H95.3525C94.4285 53.25 93.6515 53.124 93.0215 52.872C92.4055 52.634 91.9365 52.305 91.6145 51.885C91.2925 51.479 91.1315 51.017 91.1315 50.499V50.31C91.1315 49.834 91.2505 49.407 91.4885 49.029C91.7265 48.651 92.0625 48.343 92.4965 48.105C92.9305 47.867 93.4275 47.727 93.9875 47.685V47.265L95.1845 48.084C94.7645 48.196 94.4145 48.35 94.1345 48.546C93.8685 48.742 93.6725 48.966 93.5465 49.218C93.4205 49.47 93.3575 49.764 93.3575 50.1V50.268C93.3575 50.576 93.4415 50.835 93.6095 51.045C93.7775 51.255 94.0365 51.416 94.3865 51.528C94.7365 51.64 95.1635 51.696 95.6675 51.696H96.2765C96.9625 51.696 97.5575 51.661 98.0615 51.591C98.5655 51.535 99.0485 51.423 99.5105 51.255C99.6085 51.115 99.6715 50.954 99.6995 50.772C99.7415 50.59 99.7625 50.408 99.7625 50.226V50.079C99.7625 49.757 99.6645 49.484 99.4685 49.26C99.2725 49.036 98.9715 48.91 98.5655 48.882L96.2765 48.735C95.7305 48.693 95.2615 48.567 94.8695 48.357C94.4915 48.147 94.1975 47.881 93.9875 47.559C93.7915 47.237 93.6935 46.894 93.6935 46.53ZM97.2635 38.256L99.3005 38.235V38.76C99.7625 39.012 100.133 39.341 100.413 39.747C100.707 40.139 100.854 40.615 100.854 41.175V41.343C100.854 42.029 100.658 42.617 100.266 43.107C99.8745 43.597 99.3355 43.975 98.6495 44.241C97.9775 44.507 97.2075 44.64 96.3395 44.64C95.4155 44.654 94.5965 44.507 93.8825 44.199C93.1685 43.891 92.6085 43.443 92.2025 42.855C91.8105 42.267 91.6145 41.567 91.6145 40.755V40.608C91.6145 39.782 91.8175 39.068 92.2235 38.466C92.6435 37.85 93.2455 37.367 94.0295 37.017C94.8275 36.667 95.7935 36.492 96.9275 36.492C97.8235 36.492 98.6425 36.513 99.3845 36.555C100.14 36.597 100.952 36.66 101.82 36.744C101.848 36.814 101.869 36.912 101.883 37.038C101.897 37.164 101.904 37.29 101.904 37.416C101.904 37.808 101.841 38.13 101.715 38.382C101.603 38.634 101.407 38.76 101.127 38.76C100.861 38.76 100.553 38.739 100.203 38.697C99.8675 38.641 99.4265 38.592 98.8805 38.55C98.3345 38.494 97.6345 38.466 96.7805 38.466C95.7725 38.466 95.0025 38.669 94.4705 39.075C93.9385 39.467 93.6725 40.076 93.6725 40.902V41.028C93.6725 41.238 93.7075 41.476 93.7775 41.742C93.8475 42.008 93.9805 42.267 94.1765 42.519C94.4985 42.659 94.8205 42.764 95.1425 42.834C95.4785 42.89 95.8705 42.918 96.3185 42.918C97.1165 42.918 97.7395 42.75 98.1875 42.414C98.6495 42.078 98.8805 41.581 98.8805 40.923V40.755C98.8805 40.489 98.8385 40.209 98.7545 39.915C98.6705 39.607 98.5095 39.306 98.2715 39.012C98.0475 38.718 97.7115 38.466 97.2635 38.256ZM109.304 36.513C110.242 36.513 111.033 36.702 111.677 37.08C112.335 37.458 112.832 37.983 113.168 38.655C113.518 39.313 113.693 40.062 113.693 40.902V41.007C113.693 41.483 113.665 41.875 113.609 42.183C113.553 42.477 113.469 42.694 113.357 42.834C113.245 42.974 113.105 43.044 112.937 43.044H107.603C107.281 43.044 106.987 43.002 106.721 42.918C106.469 42.834 106.266 42.722 106.112 42.582L105.713 42.792L105.755 41.595H111.404C111.432 41.455 111.453 41.308 111.467 41.154C111.495 41 111.509 40.853 111.509 40.713C111.509 40.279 111.453 39.901 111.341 39.579C111.243 39.243 111.082 38.942 110.858 38.676C110.648 38.592 110.445 38.536 110.249 38.508C110.053 38.466 109.78 38.445 109.43 38.445C108.408 38.445 107.582 38.83 106.952 39.6C106.322 40.37 106.007 41.525 106.007 43.065V43.254C106.007 43.562 106.021 43.856 106.049 44.136C106.091 44.402 106.154 44.654 106.238 44.892C106.336 45.13 106.441 45.354 106.553 45.564C106.931 45.788 107.344 45.956 107.792 46.068C108.24 46.166 108.793 46.215 109.451 46.215C109.941 46.215 110.403 46.18 110.837 46.11C111.271 46.026 111.684 45.9 112.076 45.732C112.482 45.564 112.867 45.347 113.231 45.081H113.357C113.371 45.179 113.385 45.284 113.399 45.396C113.413 45.494 113.42 45.606 113.42 45.732C113.42 46.096 113.371 46.404 113.273 46.656C113.175 46.894 113.035 47.104 112.853 47.286C112.629 47.51 112.335 47.699 111.971 47.853C111.621 47.993 111.229 48.098 110.795 48.168C110.361 48.238 109.892 48.273 109.388 48.273C108.59 48.273 107.848 48.154 107.162 47.916C106.476 47.664 105.881 47.307 105.377 46.845C104.873 46.383 104.481 45.816 104.201 45.144C103.921 44.458 103.781 43.681 103.781 42.813V42.624C103.781 41.658 103.921 40.804 104.201 40.062C104.481 39.306 104.866 38.662 105.356 38.13C105.86 37.598 106.448 37.199 107.12 36.933C107.792 36.653 108.52 36.513 109.304 36.513Z" fill="#0F1949"/>
</svg>
